<svg xmlns="http://www.w3.org/2000/svg" width="21" height="16" viewBox="0 0 21 16" _ngcontent-esh-c86="" aria-hidden="true"><defs _ngcontent-esh-c86=""><linearGradient id="a" x1="50%" x2="50%" y1="0%" y2="100%" _ngcontent-esh-c86=""><stop offset="0%" stop-color="#AA0101" _ngcontent-esh-c86=""></stop><stop offset="100%" stop-color="#FF008F" _ngcontent-esh-c86=""></stop></linearGradient><linearGradient id="b" x1="50%" x2="50%" y1="0%" y2="100%" _ngcontent-esh-c86=""><stop offset="0%" stop-color="#AA0101" _ngcontent-esh-c86=""></stop><stop offset="100%" stop-color="#FF008F" _ngcontent-esh-c86=""></stop></linearGradient><linearGradient id="c" x1="50%" x2="50%" y1="0%" y2="100%" _ngcontent-esh-c86=""><stop offset="0%" stop-color="#AA0101" _ngcontent-esh-c86=""></stop><stop offset="100%" stop-color="#FF008F" _ngcontent-esh-c86=""></stop></linearGradient><linearGradient id="d" x1="50%" x2="50%" y1="0%" y2="100%" _ngcontent-esh-c86=""><stop offset="0%" stop-color="#AA0101" _ngcontent-esh-c86=""></stop><stop offset="100%" stop-color="#FF008F" _ngcontent-esh-c86=""></stop></linearGradient><linearGradient id="e" x1="50%" x2="50%" y1="0%" y2="100%" _ngcontent-esh-c86=""><stop offset="0%" stop-color="#AA0101" _ngcontent-esh-c86=""></stop><stop offset="100%" stop-color="#FF008F" _ngcontent-esh-c86=""></stop></linearGradient><linearGradient id="f" x1="50%" x2="50%" y1="0%" y2="100%" _ngcontent-esh-c86=""><stop offset="0%" stop-color="#AA0101" _ngcontent-esh-c86=""></stop><stop offset="100%" stop-color="#FF008F" _ngcontent-esh-c86=""></stop></linearGradient></defs><g fill="none" fill-rule="evenodd" _ngcontent-esh-c86=""><path fill="url(#a)" d="M9.84 0A10.35 10.35 0 0 0 3.5 2.62l2.61 2.62a5.49 5.49 0 0 1 3.72.01V0z" _ngcontent-esh-c86=""></path><path fill="url(#b)" d="m12.21 6.93 4.95-4.51A10.36 10.36 0 0 0 11.06 0v5.88c.43.3.82.65 1.15 1.05z" _ngcontent-esh-c86=""></path><path fill="url(#c)" d="M0 10.43v.61h2.45v-.6c0-1.94 1-3.65 2.51-4.63L2.64 3.49A10.38 10.38 0 0 0 0 10.43z" _ngcontent-esh-c86=""></path><path fill="url(#d)" d="M17.65 11.04h3.25v-.6c0-.9-.11-1.77-.33-2.61l-2.92 3.21z" _ngcontent-esh-c86=""></path><path fill="url(#e)" d="M10.45 11.06a2.45 2.45 0 1 0 0 4.9 2.45 2.45 0 0 0 0-4.9z" _ngcontent-esh-c86=""></path><path fill="url(#f)" d="m18.3 3.04-7.48 6.82a3.64 3.64 0 0 1 3.28 3.27l6.8-7.48v-2.6h-2.6z" _ngcontent-esh-c86=""></path></g></svg>